PathFileType	4	(X/Y/Z)	Run_400 05
DataRate	CameraRate	NumFrames	NumMarkers	Units	OrigDataRate	OrigDataStartFrame	OrigNumFrames
120	120	6	42	mm	120	179	128
Frame#	Time	LASI			RASI			LPSI			RPSI			RTH1			RTH2			RTH3			LTH1			LTH2			LTH3			RTB1			RTB2			RTB3			LTB1			LTB2			LTB3			RCAL			RTOE			RMT5			LCAL			LTOE			LMT5			LACR			RACR			CLAV			C7			RUA1			RUA2			RUA3			RLEL			RMEL			LUA1			LUA2			LUA3			LLEL			LMEL			RFAsuperior			RFAradius			RFAulna			LFAsuperior			LFAradius			LFAulna		
		X1	Y1	Z1	X2	Y2	Z2	X3	Y3	Z3	X4	Y4	Z4	X5	Y5	Z5	X6	Y6	Z6	X7	Y7	Z7	X8	Y8	Z8	X9	Y9	Z9	X10	Y10	Z10	X11	Y11	Z11	X12	Y12	Z12	X13	Y13	Z13	X14	Y14	Z14	X15	Y15	Z15	X16	Y16	Z16	X17	Y17	Z17	X18	Y18	Z18	X19	Y19	Z19	X20	Y20	Z20	X21	Y21	Z21	X22	Y22	Z22	X23	Y23	Z23	X24	Y24	Z24	X25	Y25	Z25	X26	Y26	Z26	X27	Y27	Z27	X28	Y28	Z28	X29	Y29	Z29	X30	Y30	Z30	X31	Y31	Z31	X32	Y32	Z32	X33	Y33	Z33	X34	Y34	Z34	X35	Y35	Z35	X36	Y36	Z36	X37	Y37	Z37	X38	Y38	Z38	X39	Y39	Z39	X40	Y40	Z40	X41	Y41	Z41	X42	Y42	Z42	

179	  1.491667	1003.029686	1069.108951	-449.591444	992.851687	1085.234775	-197.106296	827.439581	1130.128006	-365.807918	820.241501	1122.870949	-279.759935	972.811095	920.286557	-142.304199	1078.138890	851.156550	-145.764012	1069.685919	720.521498	-182.624614	843.203443	886.198065	-493.892100	829.022637	753.172981	-468.440062	711.660886	693.547919	-436.195209	1242.252330	478.260443	-262.236845	1220.965319	404.632704	-200.201384	1254.960548	311.661790	-273.600868	600.814834	475.868372	-367.465568	511.348749	442.172369	-413.810884	441.053602	351.614712	-346.758423	1174.577234	134.768203	-306.475200	1406.408892	175.177774	-307.986753	1345.947311	116.112023	-228.890661	287.358416	361.930745	-322.381935	366.772839	142.258841	-309.899251	301.272118	190.011867	-390.566374	1045.805606	1572.637170	-448.475881	938.702782	1566.643320	-133.070116	1027.284165	1511.011997	-243.298632	911.515841	1587.597031	-316.618867	853.260611	1514.504092	-73.436340	805.473383	1436.897253	-82.029271	739.780780	1479.039986	-103.136162	626.509205	1384.204130	-80.142877	637.281069	1377.283874	-162.691365	1053.056283	1488.027467	-530.002240	1060.779154	1415.035197	-523.367762	971.264335	1401.347628	-561.463283	988.838834	1238.671030	-613.566827	920.140627	1225.040712	-556.236079	701.158845	1315.213044	-52.099677	848.015310	1209.113430	-90.230861	800.142660	1176.725984	-46.417891	1069.082819	1254.473479	-555.926990	1150.363146	1302.184841	-402.772845	1176.871517	1234.159495	-419.815066	
180	  1.500000	1005.367016	1069.293968	-447.972457	993.203804	1083.677988	-195.904208	828.899040	1129.632727	-366.219790	820.875698	1121.302286	-280.282034	971.857654	918.185862	-141.435234	1074.313117	844.669748	-144.658558	1063.828169	715.577894	-184.667554	848.922359	883.586868	-492.941091	836.014743	750.633240	-465.882852	718.159555	690.520230	-437.287220	1240.641908	472.795733	-264.859558	1222.578130	398.305397	-202.356873	1262.829590	307.534252	-276.146153	600.381017	477.146835	-367.759315	508.237612	450.021054	-414.006258	432.721339	363.639804	-347.140639	1194.343656	125.038432	-309.619135	1422.219281	183.064947	-308.692328	1366.061748	117.555965	-231.208461	277.135112	381.597379	-319.434086	351.027047	159.478789	-316.229321	285.920642	212.110207	-394.345750	1046.995455	1573.110123	-447.988021	939.173722	1565.691946	-132.880571	1028.232379	1510.756229	-243.095154	912.591408	1587.074833	-316.225690	853.553008	1513.425723	-74.100127	805.764989	1435.963823	-82.761689	740.394694	1478.256198	-104.661506	626.818402	1383.495551	-81.564030	637.882634	1376.426897	-164.018542	1054.161938	1489.198436	-529.700167	1061.783940	1416.197529	-523.564379	971.936924	1402.803013	-561.215705	988.914837	1240.128957	-614.028026	919.773201	1226.893885	-557.220745	701.637565	1314.734906	-53.187167	849.563652	1209.390398	-90.320047	801.214866	1176.617237	-47.222467	1068.893932	1254.924203	-555.946019	1149.879841	1301.336280	-402.043320	1175.612938	1232.930376	-419.019988	
181	  1.508333	1007.348104	1069.045983	-446.384545	993.018114	1082.051170	-194.776840	829.758433	1128.395760	-366.477768	820.672573	1119.445787	-280.623963	970.305841	915.270874	-139.630806	1069.558921	837.090888	-143.036031	1057.574388	710.570870	-186.982766	855.019244	879.996196	-491.551239	843.535815	747.404449	-463.718105	725.963913	685.702980	-438.062029	1237.921904	467.847983	-267.759331	1222.438060	392.931041	-204.807825	1267.042310	304.048472	-278.744269	602.261551	476.744050	-368.119560	507.879101	456.845077	-414.294739	426.817166	375.481485	-347.343462	1207.510710	117.843897	-312.573282	1431.481098	188.155247	-309.623546	1378.509006	118.396087	-233.241245	270.640450	402.525489	-317.414430	335.934355	177.575777	-321.922535	272.757570	235.468243	-397.998001	1048.189896	1572.554031	-447.870600	940.017041	1563.906729	-132.625675	1029.273963	1509.711174	-243.039960	913.870523	1586.014103	-315.926809	854.344957	1511.057555	-74.235618	806.733624	1433.601777	-83.192975	741.397971	1475.898048	-105.172640	627.868619	1381.107111	-82.092875	639.026640	1374.058738	-164.558293	1054.968312	1489.194856	-529.765231	1062.429203	1416.288548	-524.107603	972.156975	1403.158509	-561.139578	988.471812	1240.610010	-614.714680	918.850859	1227.793525	-558.144358	703.159840	1312.590891	-53.732200	852.145684	1208.520457	-90.442971	803.525425	1175.144885	-48.032575	1068.310545	1254.219902	-556.302682	1149.313720	1299.050907	-401.694988	1174.139769	1230.290968	-418.704006	
182	  1.516667	1008.994016	1068.442927	-445.179949	992.193298	1080.659184	-194.213693	830.167802	1126.495907	-366.711287	819.870256	1117.318732	-280.973432	967.917471	911.276531	-137.429166	1064.350924	829.252292	-141.065357	1051.598753	705.606476	-189.083231	861.281717	875.762416	-489.914422	851.143370	743.612977	-462.215891	734.583583	679.456286	-438.263205	1234.231204	463.203945	-270.788212	1220.652394	388.177508	-207.575470	1267.733265	300.596951	-281.428575	606.343503	475.075454	-368.411152	510.630825	462.334957	-414.678102	423.705148	387.154382	-347.376351	1213.609694	112.074580	-315.520957	1435.011661	189.281238	-311.242629	1383.641829	117.630236	-235.224052	268.728845	424.486146	-316.510831	321.569050	196.489913	-326.725143	262.394438	259.984429	-401.660632	1049.448735	1570.961277	-447.945058	941.254717	1561.311066	-132.362659	1030.399258	1507.783714	-243.140445	915.316047	1584.378455	-315.723658	855.620000	1507.543606	-73.914976	808.340895	1429.931210	-83.318920	742.782836	1472.085039	-104.743316	629.639081	1377.121247	-81.794130	640.735566	1370.188681	-164.322179	1055.559037	1488.046957	-530.160817	1062.688016	1415.334915	-524.928398	971.976334	1402.504869	-561.308589	987.496720	1240.117266	-615.597009	917.460474	1227.754971	-559.035841	705.627663	1308.934234	-53.757333	855.680151	1206.536581	-90.606226	807.037921	1172.384541	-48.787898	1067.313439	1252.350578	-556.936435	1148.659371	1295.347571	-401.719191	1172.504868	1226.363485	-419.072919	
183	  1.525000	1010.366950	1067.449496	-444.439978	990.784999	1079.569341	-194.375954	830.285751	1123.859149	-366.989373	818.826948	1114.767448	-281.435937	964.704408	906.529985	-135.457411	1059.284336	822.183335	-139.241570	1046.410497	700.925381	-190.914374	867.594580	870.997459	-488.339730	858.736812	739.088820	-461.486216	743.826181	671.986140	-438.066167	1229.489766	458.425804	-273.877637	1217.209915	383.545312	-210.515845	1265.001173	296.537773	-284.348192	612.489636	472.616647	-368.755039	516.404399	466.482486	-415.132352	423.636734	398.657777	-347.466941	1212.804550	106.658825	-318.723756	1433.547350	186.248127	-313.738560	1382.186979	114.464230	-237.542742	271.787477	446.959265	-316.653913	308.490760	216.251824	-330.529081	255.442356	285.305217	-405.293647	1050.775272	1568.342858	-448.088717	942.904458	1557.920779	-132.124837	1031.627132	1504.905549	-243.368420	916.848146	1582.094136	-315.562317	857.378150	1503.023723	-73.231876	810.560232	1425.088442	-83.115269	744.570241	1466.958169	-103.493215	632.142833	1371.618233	-80.717924	642.979388	1364.880440	-163.328232	1056.002714	1485.795808	-530.810567	1062.565010	1413.351238	-525.920599	971.478041	1400.925251	-561.705178	985.984161	1238.658846	-616.595571	915.653315	1226.811015	-559.955207	708.979910	1303.893995	-53.264844	860.093154	1203.457385	-90.808971	811.706131	1168.419665	-49.403826	1065.899766	1249.313730	-557.795053	1147.902242	1290.239679	-402.113411	1170.697566	1221.210271	-420.202475	
184	  1.533333	1011.515395	1065.843735	-443.981028	989.026568	1078.502406	-194.917413	830.227157	1120.297276	-367.343087	817.839253	1111.554532	-282.035101	961.027754	901.709877	-134.277763	1055.003888	816.614116	-138.425908	1042.093392	696.626389	-192.707037	873.813851	865.670019	-487.157630	866.512368	733.593595	-461.477155	753.808430	663.368648	-437.976016	1223.448359	452.920761	-276.976483	1212.032286	378.413018	-213.370591	1258.913267	291.270363	-287.570725	620.611168	469.705284	-369.367610	524.818710	469.541633	-415.678689	426.714993	409.910973	-347.931942	1205.737097	101.255310	-322.356714	1427.500657	179.268298	-317.129174	1374.834721	108.331309	-240.568681	279.691834	469.282277	-317.647470	297.710457	236.833371	-333.381929	252.345406	310.793302	-408.653158	1052.115258	1564.726532	-448.282122	944.964539	1553.755131	-131.898673	1032.964048	1501.049999	-243.675547	918.378487	1579.077638	-315.371758	859.622374	1497.609311	-72.266333	813.371684	1419.198277	-82.566337	746.791630	1460.650518	-101.543456	635.405211	1364.672323	-78.894519	645.697705	1358.251355	-161.601921	1056.318929	1482.493625	-531.621499	1062.096918	1410.324800	-526.990807	970.750076	1398.467895	-562.249103	983.947149	1236.253373	-617.651192	913.446631	1225.003624	-560.964328	713.204352	1297.561031	-52.242650	865.332876	1199.302956	-91.034285	817.475676	1163.336060	-49.804690	1064.086629	1245.131486	-558.867367	1147.018313	1283.743340	-402.866614	1168.632079	1214.776188	-421.938657	
